# FreeCAD v0.19 build24267 +148 (Git) Arch module
# http://www.freecadweb.org
mtllib Room_Large_Zn.mtl
o Mesh
usemtl color_cccccc
v 0.0 0.0 0.0
v 10200.0 0.0 0.0
v 0.0 0.0 10200.0
v 10200.0 0.0 10200.0
v 0.0 10200.0 0.0
v 0.0 10200.0 10200.0
v 10200.0 10200.0 0.0
v 10200.0 10200.0 10200.0
v 10100.0 100.0 0.0
v 100.0 100.0 0.0
v 100.0 10100.0 0.0
v 10100.0 10100.0 0.0
v 100.0 100.0 10100.0
v 10100.0 100.0 10100.0
v 10100.0 10100.0 10100.0
v 100.0 10100.0 10100.0
vn 0.0 -1.0 0.0
vn 0.0 -1.0 0.0
vn -1.0 0.0 0.0
vn -1.0 -0.0 0.0
vn 1.0 0.0 0.0
vn 1.0 -0.0 0.0
vn 0.0 0.0 -1.0
vn 0.0 -0.0 -1.0
vn 0.0 0.0 -1.0
vn 0.0 0.0 -1.0
vn 0.0 0.0 -1.0
vn 0.0 0.0 -1.0
vn 0.0 0.0 -1.0
vn 0.0 0.0 -1.0
vn 0.0 0.0 1.0
vn 0.0 0.0 1.0
vn 0.0 1.0 -0.0
vn 0.0 1.0 0.0
vn 0.0 1.0 0.0
vn 0.0 1.0 -0.0
vn -1.0 0.0 0.0
vn -1.0 0.0 0.0
vn 0.0 -1.0 0.0
vn 0.0 -1.0 0.0
vn 1.0 0.0 0.0
vn 1.0 0.0 0.0
vn 0.0 0.0 -1.0
vn 0.0 0.0 -1.0
f 1//1 2//1 3//1 
f 3//2 2//2 4//2 
f 5//3 1//3 6//3 
f 6//4 1//4 3//4 
f 2//5 7//5 4//5 
f 4//6 7//6 8//6 
f 1//7 9//7 2//7 
f 10//8 9//8 1//8 
f 5//9 11//9 1//9 
f 1//10 11//10 10//10 
f 12//11 7//11 9//11 
f 9//12 7//12 2//12 
f 5//13 7//13 11//13 
f 11//14 7//14 12//14 
f 8//15 3//15 4//15 
f 8//16 6//16 3//16 
f 7//17 5//17 8//17 
f 8//18 5//18 6//18 
f 9//19 10//19 13//19 
f 9//20 13//20 14//20 
f 12//21 9//21 14//21 
f 12//22 14//22 15//22 
f 11//23 12//23 15//23 
f 11//24 15//24 16//24 
f 10//25 11//25 16//25 
f 10//26 16//26 13//26 
f 13//27 15//27 14//27 
f 16//28 15//28 13//28 
