# Created by FreeCAD <http://www.freecadweb.org>
v 0.000000 0.000000 0.000000 204 204 204
v 3200.000000 0.000000 0.000000 204 204 204
v 0.000000 0.000000 3100.000000 204 204 204
v 3200.000000 0.000000 3100.000000 204 204 204
v 0.000000 2700.000000 0.000000 204 204 204
v 100.000000 100.000000 0.000000 204 204 204
v 100.000000 2600.000000 0.000000 204 204 204
v 3100.000000 100.000000 0.000000 204 204 204
v 3100.000000 2600.000000 0.000000 204 204 204
v 3200.000000 2700.000000 0.000000 204 204 204
v 3200.000000 2700.000000 3100.000000 204 204 204
v 0.000000 0.000000 3200.000000 204 204 204
v 3200.000000 0.000000 3200.000000 204 204 204
v 0.000000 2700.000000 3100.000000 204 204 204
v 100.000000 2600.000000 3100.000000 204 204 204
v 100.000000 100.000000 3100.000000 204 204 204
v 3100.000000 100.000000 3100.000000 204 204 204
v 3100.000000 2600.000000 3100.000000 204 204 204
v 3200.000000 2700.000000 3200.000000 204 204 204
v 0.000000 2700.000000 3200.000000 204 204 204
v 100.000000 100.000000 3200.000000 204 204 204
v 100.000000 2600.000000 3200.000000 204 204 204
v 3100.000000 100.000000 3200.000000 204 204 204
v 3100.000000 2600.000000 3200.000000 204 204 204
vn 0.000000 -1.000000 0.000000
vn 0.000000 -1.000000 0.000000
vn 0.000000 0.000000 -1.000000
vn 0.000000 0.000000 -1.000000
vn 0.000000 0.000000 -1.000000
vn 0.000000 -0.000000 -1.000000
vn 0.000000 0.000000 -1.000000
vn 0.000000 0.000000 -1.000000
vn 0.000000 0.000000 -1.000000
vn 0.000000 0.000000 -1.000000
vn 1.000000 0.000000 0.000000
vn 1.000000 -0.000000 0.000000
vn 0.000000 -1.000000 0.000000
vn 0.000000 -1.000000 0.000000
vn -1.000000 0.000000 0.000000
vn -1.000000 -0.000000 0.000000
vn 0.000000 1.000000 -0.000000
vn 0.000000 1.000000 0.000000
vn 1.000000 0.000000 0.000000
vn 1.000000 0.000000 0.000000
vn -0.000000 1.000000 0.000000
vn 0.000000 1.000000 0.000000
vn -1.000000 0.000000 0.000000
vn -1.000000 0.000000 0.000000
vn -0.000000 -1.000000 0.000000
vn 0.000000 -1.000000 -0.000000
vn 1.000000 0.000000 0.000000
vn 1.000000 0.000000 0.000000
vn 0.000000 0.000000 1.000000
vn 0.000000 0.000000 1.000000
vn 0.000000 0.000000 1.000000
vn 0.000000 0.000000 1.000000
vn 0.000000 0.000000 1.000000
vn 0.000000 0.000000 1.000000
vn 0.000000 0.000000 1.000000
vn 0.000000 0.000000 1.000000
vn -1.000000 0.000000 0.000000
vn -1.000000 0.000000 0.000000
vn 0.000000 1.000000 -0.000000
vn 0.000000 1.000000 0.000000
vn 0.000000 0.000000 -1.000000
vn 0.000000 0.000000 -1.000000
vn 0.000000 0.000000 1.000000
vn 0.000000 0.000000 1.000000
f 1//1 2//1 3//1
f 3//2 2//2 4//2
f 1//3 5//3 6//3
f 5//4 7//4 6//4
f 1//5 8//5 2//5
f 6//6 8//6 1//6
f 8//7 9//7 2//7
f 9//8 10//8 2//8
f 5//9 10//9 7//9
f 7//10 10//10 9//10
f 2//11 10//11 4//11
f 4//12 10//12 11//12
f 3//13 4//13 12//13
f 12//14 4//14 13//14
f 5//15 1//15 14//15
f 14//16 1//16 3//16
f 10//17 5//17 11//17
f 11//18 5//18 14//18
f 15//19 16//19 6//19
f 15//20 6//20 7//20
f 16//21 17//21 8//21
f 16//22 8//22 6//22
f 17//23 18//23 9//23
f 17//24 9//24 8//24
f 18//25 15//25 7//25
f 18//26 7//26 9//26
f 4//27 19//27 13//27
f 4//28 11//28 19//28
f 20//29 12//29 21//29
f 22//30 20//30 21//30
f 23//31 12//31 13//31
f 23//32 21//32 12//32
f 24//33 23//33 13//33
f 19//34 24//34 13//34
f 19//35 20//35 22//35
f 19//36 22//36 24//36
f 14//37 12//37 20//37
f 14//38 3//38 12//38
f 11//39 14//39 19//39
f 19//40 14//40 20//40
f 15//41 17//41 16//41
f 15//42 18//42 17//42
f 23//43 22//43 21//43
f 24//44 22//44 23//44
